HIERARCHY
ROOT Hips
{
	OFFSET 0.000000 0.000000 0.000000
	CHANNELS 6 Xposition Yposition Zposition Zrotation Yrotation Xrotation 
	JOINT LHipJoint
	{
		OFFSET 0.000000 0.000000 0.000000
		CHANNELS 3 Zrotation Yrotation Xrotation
		JOINT LeftUpLeg
		{
			OFFSET 1.363060 -1.794630 0.839290
			CHANNELS 3 Zrotation Yrotation Xrotation
			JOINT LeftLeg
			{
				OFFSET 2.448110 -6.726130 0.000000
				CHANNELS 3 Zrotation Yrotation Xrotation
				JOINT LeftFoot
				{
					OFFSET 2.562200 -7.039590 0.000000
					CHANNELS 3 Zrotation Yrotation Xrotation
					JOINT LeftToeBase
					{
						OFFSET 0.157640 -0.433110 2.322550
						CHANNELS 3 Zrotation Yrotation Xrotation
						End Site
						{
							OFFSET 0.000000 0.000000 0.000000
						}
					}
				}
			}
		}
	}
	JOINT RHipJoint
	{
		OFFSET 0.000000 0.000000 0.000000
		CHANNELS 3 Zrotation Yrotation Xrotation
		JOINT RightUpLeg
		{
			OFFSET -1.305520 -1.794630 0.839290
			CHANNELS 3 Zrotation Yrotation Xrotation
			JOINT RightLeg
			{
				OFFSET -2.542530 -6.985550 0.000000
				CHANNELS 3 Zrotation Yrotation Xrotation
				JOINT RightFoot
				{
					OFFSET -2.568260 -7.056230 0.000000
					CHANNELS 3 Zrotation Yrotation Xrotation
					JOINT RightToeBase
					{
						OFFSET -0.164730 -0.452590 2.363150
						CHANNELS 3 Zrotation Yrotation Xrotation
						End Site
						{
							OFFSET 0.000000 0.000000 0.000000
						}
					}
				}
			}
		}
	}
	JOINT LowerBack
	{
		OFFSET 0.000000 0.000000 0.000000
		CHANNELS 3 Zrotation Yrotation Xrotation
		JOINT Spine
		{
			OFFSET 0.028270 2.035590 -0.193380
			CHANNELS 3 Zrotation Yrotation Xrotation
			JOINT Spine1
			{
				OFFSET 0.056720 2.048850 -0.042750
				CHANNELS 3 Zrotation Yrotation Xrotation
				JOINT Neck
				{
					OFFSET 0.000000 0.000000 0.000000
					CHANNELS 3 Zrotation Yrotation Xrotation
					JOINT Neck1
					{
						OFFSET -0.054170 1.746240 0.172020
						CHANNELS 3 Zrotation Yrotation Xrotation
						JOINT Head
						{
							OFFSET 0.104070 1.761360 -0.123970
							CHANNELS 3 Zrotation Yrotation Xrotation
							End Site
							{
								OFFSET 0.000000 0.000000 0.000000
							}
						}
					}
				}
				JOINT LeftShoulder
				{
					OFFSET 0.000000 0.000000 0.000000
					CHANNELS 3 Zrotation Yrotation Xrotation
					JOINT LeftArm
					{
						OFFSET 3.362410 1.200890 -0.311210
						CHANNELS 3 Zrotation Yrotation Xrotation
						JOINT LeftForeArm
						{
							OFFSET 4.983000 -0.000000 -0.000000
							CHANNELS 3 Zrotation Yrotation Xrotation
							JOINT LeftHand
							{
								OFFSET 3.483560 -0.000000 -0.000000
								CHANNELS 3 Zrotation Yrotation Xrotation
								JOINT LeftFingerBase
								{
									OFFSET 0.000000 0.000000 0.000000
									CHANNELS 3 Zrotation Yrotation Xrotation
									JOINT LeftHandIndex1
									{
										OFFSET 0.715260 -0.000000 -0.000000
										CHANNELS 3 Zrotation Yrotation Xrotation
										End Site
										{
											OFFSET 0.000000 0.000000 0.000000
										}
									}
								}
								JOINT LThumb
								{
									OFFSET 0.000000 0.000000 0.000000
									CHANNELS 3 Zrotation Yrotation Xrotation
									End Site
									{
										OFFSET 0.000000 0.000000 0.000000
									}
								}
							}
						}
					}
				}
				JOINT RightShoulder
				{
					OFFSET 0.000000 0.000000 0.000000
					CHANNELS 3 Zrotation Yrotation Xrotation
					JOINT RightArm
					{
						OFFSET -3.136600 1.374050 -0.404650
						CHANNELS 3 Zrotation Yrotation Xrotation
						JOINT RightForeArm
						{
							OFFSET -5.241900 -0.000000 -0.000000
							CHANNELS 3 Zrotation Yrotation Xrotation
							JOINT RightHand
							{
								OFFSET -3.444170 -0.000000 -0.000000
								CHANNELS 3 Zrotation Yrotation Xrotation
								JOINT RightFingerBase
								{
									OFFSET 0.000000 0.000000 0.000000
									CHANNELS 3 Zrotation Yrotation Xrotation
									JOINT RightHandIndex1
									{
										OFFSET -0.622530 -0.000000 -0.000000
										CHANNELS 3 Zrotation Yrotation Xrotation
										End Site
										{
											OFFSET 0.000000 0.000000 0.000000
										}
									}
								}
								JOINT RThumb
								{
									OFFSET 0.000000 0.000000 0.000000
									CHANNELS 3 Zrotation Yrotation Xrotation
									End Site
									{
										OFFSET 0.000000 0.000000 0.000000
									}
								}
							}
						}
					}
				}
			}
		}
	}
}
MOTION
Frames: 9
Frame Time: 0.033333
-1.860057 16.632159 23.611088 0.706769 8.705185 11.680308 -2.898648 7.620138 -8.078441 -20.013399 -3.310933 -6.765677 -13.566954 -9.244676 -23.085842 0.899701 11.095086 25.929434 0.000000 0.000000 0.000000 8.697157 -6.358013 -5.165798 12.281744 4.651983 -8.084901 -6.403908 -24.804368 54.042024 24.813997 -40.143047 5.375014 0.000000 0.000000 0.000000 -3.227783 0.833284 22.430768 2.176834 -0.748461 -3.987985 -2.950246 0.301075 -9.261763 2.437328 -2.350629 -3.476597 5.535757 -0.529000 8.346695 0.000000 0.000000 0.000000 14.076542 15.497594 3.377904 -71.984579 -12.433164 29.521866 -14.269018 -84.308414 0.510225 3.550599 -18.273553 0.241220 3.662560 -18.258815 0.000000 0.000000 0.000000 0.000000 0.000000 0.000000 0.000000 -19.421143 -17.591218 0.640570 82.989382 3.288048 23.341505 -167.081173 82.034999 -179.149236 -1.939511 22.921696 0.405041 -2.049486 22.921545 0.000000 0.000000 0.000000 0.000000 0.000000 0.000000 0.000000 
-1.866861 16.662789 23.815431 1.164640 8.183356 11.622704 -2.615594 7.981611 -8.095901 -20.946938 -3.242648 -6.401595 -12.940592 -8.785235 -21.703679 0.621435 9.718929 22.844500 0.000000 0.000000 0.000000 8.830827 -6.507265 -4.401402 11.510381 4.617576 -8.215105 -6.473942 -24.449881 53.619767 24.932067 -41.162460 6.877068 0.000000 0.000000 0.000000 -3.292418 0.728253 21.622885 1.814749 -0.794037 -3.581447 -3.233626 0.375321 -7.991864 1.681410 -1.336667 -3.042556 5.291490 -0.474064 8.544921 0.000000 0.000000 0.000000 14.919933 14.690167 3.300115 -71.876915 -13.002153 27.347989 -11.788725 -85.546644 0.350238 4.512062 -18.447228 0.157950 4.661946 -18.419020 0.000000 0.000000 0.000000 0.000000 0.000000 0.000000 0.000000 -19.842948 -16.870932 0.488053 83.669416 4.277326 22.891395 -167.883141 81.578904 -179.161264 -2.288728 23.076556 0.397006 -2.413572 23.072953 -0.000000 0.000000 0.000000 0.000000 0.000000 0.000000 0.000000 
-1.873842 16.694664 24.016016 1.657056 7.684122 11.293614 -2.419550 8.386394 -7.939196 -21.813674 -3.166704 -5.988958 -12.309107 -8.298460 -20.238851 0.391541 8.370172 19.860535 0.000000 0.000000 0.000000 8.951451 -6.719530 -3.492031 10.680177 4.527957 -8.222508 -6.522834 -24.087370 53.140477 25.014169 -42.167333 8.337885 0.000000 0.000000 0.000000 -3.253795 0.586814 20.227042 1.430871 -0.847590 -2.867412 -3.670016 0.415039 -5.969675 0.863948 -0.379030 -1.891463 5.023193 -0.428655 8.853923 0.000000 0.000000 0.000000 15.520970 13.501796 3.173689 -71.563189 -13.584324 24.862506 -9.728615 -86.301264 0.191522 5.359018 -18.453022 0.075309 5.544305 -18.410880 0.000000 0.000000 0.000000 0.000000 0.000000 0.000000 0.000000 -20.106462 -15.734555 0.435288 84.446326 5.481811 22.049956 -168.627248 81.490754 -179.188462 -2.664302 23.161157 0.381090 -2.806732 23.153174 -0.000000 0.000000 0.000000 0.000000 0.000000 0.000000 0.000000 
-1.879779 16.727264 24.212108 2.093480 7.279614 10.967626 -2.253253 8.761939 -7.803323 -22.600097 -3.113928 -5.620731 -11.690231 -7.792557 -18.708769 0.204440 7.065880 17.009315 0.000000 0.000000 0.000000 9.113439 -6.957789 -2.606257 9.863577 4.407920 -8.228431 -6.535983 -23.743857 52.613054 25.055794 -43.146200 9.747013 0.000000 0.000000 0.000000 -3.288901 0.452922 18.889349 1.252840 -0.877165 -2.353087 -3.977020 0.298695 -4.247517 0.505633 -0.013118 -1.374308 4.874025 -0.410438 8.956196 0.000000 0.000000 0.000000 15.769066 12.292346 3.254542 -71.243307 -13.884791 22.680123 -8.060221 -86.745225 0.069568 6.057858 -18.375406 0.011954 6.268692 -18.321038 0.000000 0.000000 0.000000 0.000000 0.000000 0.000000 0.000000 -20.343092 -14.462873 0.685668 85.146757 6.488504 21.010151 -169.348416 81.669617 -179.213929 -3.049168 23.190073 0.366498 -3.206716 23.177298 -0.000000 0.000000 0.000000 0.000000 0.000000 0.000000 0.000000 
-1.884724 16.760019 24.402939 2.465704 6.932274 10.713685 -2.109676 9.116445 -7.722246 -23.307143 -3.084697 -5.327886 -11.083781 -7.275033 -17.145733 0.057788 5.822098 14.315265 0.000000 0.000000 0.000000 9.316734 -7.190423 -1.786919 9.072437 4.283738 -8.256891 -6.512157 -23.416757 52.053700 25.061646 -44.091505 11.088668 0.000000 0.000000 0.000000 -3.396569 0.322071 17.765462 1.271459 -0.890832 -2.187920 -4.142896 0.119194 -3.070734 0.641974 0.003295 -1.964945 4.826548 -0.392509 8.720381 0.000000 0.000000 0.000000 15.711101 11.086268 3.635038 -70.933493 -13.781858 20.897122 -6.715202 -86.954873 -0.008429 6.607990 -18.245285 -0.028255 6.833049 -18.181505 0.000000 0.000000 0.000000 0.000000 0.000000 0.000000 0.000000 -20.633564 -13.098302 1.294956 85.752719 7.216703 19.889707 -170.091705 82.085945 -179.232375 -3.439922 23.169285 0.356191 -3.608154 23.151590 -0.000000 0.000000 0.000000 0.000000 0.000000 0.000000 0.000000 
-1.887458 16.793092 24.588732 2.797481 6.593865 10.603711 -1.997356 9.438088 -7.737177 -23.955370 -3.077132 -5.141620 -10.491768 -6.725619 -15.556130 -0.063865 4.662325 11.764622 0.000000 0.000000 0.000000 9.569345 -7.386403 -1.016636 8.231324 4.146179 -8.380407 -6.429525 -23.130848 51.438637 24.941902 -44.864319 12.384732 0.000000 0.000000 0.000000 -3.552282 0.242998 16.935368 1.328794 -0.920057 -2.161444 -4.189964 -0.005237 -2.466307 0.831102 -0.032433 -2.651719 4.801590 -0.371786 8.408965 0.000000 0.000000 0.000000 15.385939 10.285214 4.032333 -70.700696 -13.481907 19.972719 -6.146991 -86.883860 -0.033211 6.823815 -18.138924 -0.040754 7.051479 -18.071790 0.000000 0.000000 0.000000 0.000000 0.000000 0.000000 0.000000 -20.576482 -12.196275 1.873544 85.938963 7.483711 19.241108 -170.387901 82.747320 -179.237538 -3.595246 23.066474 0.353866 -3.763900 23.047019 -0.000000 0.000000 0.000000 0.000000 0.000000 0.000000 0.000000 
-1.887419 16.826023 24.769397 3.103734 6.250898 10.582103 -1.925001 9.735807 -7.809600 -24.542043 -3.083448 -5.036117 -9.925414 -6.148443 -13.952569 -0.163857 3.591747 9.361195 0.000000 0.000000 0.000000 9.859070 -7.553012 -0.264940 7.332642 3.990156 -8.570223 -6.295758 -22.883497 50.770911 24.697329 -45.460457 13.650897 0.000000 0.000000 0.000000 -3.727395 0.206497 16.268507 1.376819 -0.963516 -2.139911 -4.164034 -0.082850 -2.238644 0.934429 -0.041556 -3.028116 4.772855 -0.352394 8.140390 0.000000 0.000000 0.000000 14.795229 9.874001 4.352095 -70.539000 -13.023412 19.874716 -6.461367 -86.483377 -0.006819 6.671457 -18.048123 -0.026630 6.890794 -17.984343 0.000000 0.000000 0.000000 0.000000 0.000000 0.000000 0.000000 -20.076888 -11.746904 2.364414 85.709093 7.360821 19.042022 -170.176672 83.711699 -179.233740 -3.496176 22.858346 0.357269 -3.655605 22.840629 -0.000000 0.000000 0.000000 0.000000 0.000000 0.000000 0.000000 
-1.885061 16.858480 24.944433 3.383662 5.900883 10.648099 -1.890938 10.006267 -7.938118 -25.065528 -3.103557 -5.005902 -9.384423 -5.550871 -12.352925 -0.244012 2.613737 7.113310 0.000000 0.000000 0.000000 10.180953 -7.690189 0.460211 6.388886 3.815330 -8.818022 -6.115189 -22.674847 50.054512 24.334464 -45.884131 14.897014 0.000000 0.000000 0.000000 -3.921626 0.214113 15.768614 1.407249 -1.013958 -2.105620 -4.062748 -0.126450 -2.413928 0.918108 -0.018552 -3.001524 4.746737 -0.339217 7.964773 0.000000 0.000000 0.000000 13.950517 9.880073 4.577075 -70.447312 -12.407334 20.584249 -7.704664 -85.715723 0.069068 6.140850 -17.946211 0.013262 6.340812 -17.892223 0.000000 0.000000 0.000000 0.000000 0.000000 0.000000 0.000000 -19.110265 -11.788925 2.755352 85.020628 6.872212 19.284288 -169.440730 85.005645 -179.224461 -3.149766 22.519460 0.364523 -3.291273 22.506497 0.000000 0.000000 0.000000 0.000000 0.000000 0.000000 0.000000 
-1.880776 16.890142 25.113912 3.637315 5.544314 10.813698 -1.891561 10.239833 -8.133106 -25.527854 -3.136188 -5.045352 -8.868608 -4.938061 -10.772275 -0.305697 1.728458 5.017912 0.000000 0.000000 0.000000 10.532987 -7.794504 1.148417 5.406337 3.616982 -9.121759 -5.886723 -22.507800 49.286648 23.856188 -46.131855 16.131220 0.000000 0.000000 0.000000 -4.138347 0.278301 15.468951 1.413274 -1.066983 -2.055184 -3.876306 -0.140138 -3.087700 0.747808 0.036549 -2.469453 4.734026 -0.337164 7.930729 0.000000 0.000000 0.000000 12.838491 10.369200 4.697747 -70.401186 -11.629570 22.111792 -9.997396 -84.469961 0.194338 5.201579 -17.778844 0.078855 5.370147 -17.740318 0.000000 0.000000 0.000000 0.000000 0.000000 0.000000 0.000000 -17.620728 -12.422724 3.029697 83.753419 6.024985 19.994568 -168.117493 86.690024 -179.213946 -2.556459 22.003049 0.373348 -2.672359 21.996951 0.000000 0.000000 0.000000 0.000000 0.000000 0.000000 0.000000 
